<svg xmlns="http://www.w3.org/2000/svg" xmlns:p="http://www.evolus.vn/Namespace/Pencil" xmlns:pencil="http://www.evolus.vn/Namespace/Pencil" xmlns:html="http://www.w3.org/1999/xhtml" xmlns:xhtml="http://www.w3.org/1999/xhtml" xmlns:office="urn:oasis:names:tc:opendocument:xmlns:office:1.0" xmlns:style="urn:oasis:names:tc:opendocument:xmlns:style:1.0" xmlns:text="urn:oasis:names:tc:opendocument:xmlns:text:1.0" xmlns:table="urn:oasis:names:tc:opendocument:xmlns:table:1.0" xmlns:draw="urn:oasis:names:tc:opendocument:xmlns:drawing:1.0" xmlns:fo="urn:oasis:names:tc:opendocument:xmlns:xsl-fo-compatible:1.0" xmlns:xlink="http://www.w3.org/1999/xlink" xmlns:dc="http://purl.org/dc/elements/1.1/" xmlns:meta="urn:oasis:names:tc:opendocument:xmlns:meta:1.0" xmlns:number="urn:oasis:names:tc:opendocument:xmlns:datastyle:1.0" xmlns:svg="urn:oasis:names:tc:opendocument:xmlns:svg-compatible:1.0" xmlns:chart="urn:oasis:names:tc:opendocument:xmlns:chart:1.0" xmlns:dr3d="urn:oasis:names:tc:opendocument:xmlns:dr3d:1.0" xmlns:math="http://www.w3.org/1998/Math/MathML" xmlns:form="urn:oasis:names:tc:opendocument:xmlns:form:1.0" xmlns:script="urn:oasis:names:tc:opendocument:xmlns:script:1.0" xmlns:ooo="http://openoffice.org/2004/office" xmlns:ooow="http://openoffice.org/2004/writer" xmlns:oooc="http://openoffice.org/2004/calc" xmlns:dom="http://www.w3.org/2001/xml-events" xmlns:xforms="http://www.w3.org/2002/xforms" xmlns:xsd="http://www.w3.org/2001/XMLSchema" xmlns:xsi="http://www.w3.org/2001/XMLSchema-instance" xmlns:rpt="http://openoffice.org/2005/report" xmlns:of="urn:oasis:names:tc:opendocument:xmlns:of:1.2" xmlns:rdfa="http://docs.oasis-open.org/opendocument/meta/rdfa#" xmlns:field="urn:openoffice:names:experimental:ooo-ms-interop:xmlns:field:1.0" xmlns:regexp="http://exslt.org/regular-expressions" xmlns:em="http://exslt.org/math" xmlns:sodipodi="http://sodipodi.sourceforge.net/DTD/sodipodi-0.dtd" xmlns:inkscape="http://www.inkscape.org/namespaces/inkscape" width="410" height="730" id="exportedSVG" version="1.1" pencil:version="1.2.2" sodipodi:docname="maquette"><g inkscape:label="ListAlertes" inkscape:groupmode="layer" id="layer_listalertes"><g><rect x="0" y="0" width="410" height="730" fill="none"/><g p:type="Shape" p:def="dgthanhan.AndroidNougatWireframe:titlebar" id="7e79bb74738840039ae23e6b51f175bc" transform="matrix(1,0,0,1,0,0)"><p:metadata><p:property name="box">410,56</p:property><p:property name="fillColor">#00BCD4FF</p:property><p:property name="strokeColor">#616161FF</p:property><p:property name="strokeStyle">0|</p:property><p:property name="shadowStyle">0|0|4|0.5</p:property><p:property name="textColor">#FFFFFFFF</p:property><p:property name="vectorImage0ImageData">48,48,ref://e6046f7ee9e9b6c1d2599efabf998cca_svg</p:property><p:property name="textAlignment">0,1</p:property><p:property name="textFont">sans-serif|500|normal|17px|none</p:property><p:property name="text0">Liste des alertes</p:property><p:property name="vectorImage1ImageData">24,24,ref://7058998f912946cc2a514d6563596e67_svg</p:property><p:property name="Icon2ImageData">18,18,ref://61adde83f51a12394cdb0e8cae5d5c42_svg</p:property><p:property name="vectorImage3ImageData">18,18,ref://8684bd32a2376206a1b3bf9e100f76ba_svg</p:property><p:property name="navigationMode">menu</p:property><p:property name="withShadow">true</p:property></p:metadata>
      <defs>
        <clipPath p:name="sbDefaultClipPath" id="fcfa31fce1fb43228d56641637d9e886">
          <rect p:filter="url(#1d9f477a13134f5c9934d1b20111349f)" rx="0" ry="0" style="fill: rgb(0, 0, 0); fill-opacity: 0.211765; stroke: rgb(96, 96, 96); stroke-opacity: 1; stroke-width: 0;" width="410" height="77" p:name="rectangle2" id="c9e98b4a276c47b1a2904501fdc4266f" x="0" y="0"/>
        </clipPath>
      </defs>
      <g style="clip-path: url(#fcfa31fce1fb43228d56641637d9e886);">
        <defs>
          <filter x="-50%" width="200%" y="-50%" height="200%" p:name="rectangle1_shadowFilter" id="98d4a530505e4d6285b5c9d3c012cc02"><feGaussianBlur in="SourceAlpha" stdDeviation="4"/><feOffset dx="0" dy="0"/><feComponentTransfer><feFuncA type="linear" slope="0.5"/></feComponentTransfer><feMerge><feMergeNode/><feMergeNode in="SourceGraphic"/></feMerge></filter>
        </defs>
        <g p:filter="url(#98d4a530505e4d6285b5c9d3c012cc02)" p:name="rectangle1_globalGroup" id="aa5ee0d6c6494894a514cb12f5098c5d" filter="url(#98d4a530505e4d6285b5c9d3c012cc02)">
          <rect p:filter="url(#f04ac383c86c42c2b11d990270b16374)" rx="0" ry="0" style="fill: rgb(0, 188, 212); fill-opacity: 1; stroke: rgb(97, 97, 97); stroke-opacity: 1; stroke-width: 0; visibility: visible;" width="444" height="56" p:name="rectangle1" id="29bb446153e3487bbb0b44e573dd89de" x="-15" y="0"/>
        </g>
      </g>
      <rect p:filter="url(#52300623fbae4b1c9a7e29d8d85af51f)" rx="0" ry="0" style="fill: rgb(0, 188, 212); fill-opacity: 1; stroke: rgb(97, 97, 97); stroke-opacity: 1; stroke-width: 0;" width="410" height="56" p:name="rectangle0" id="65d9e738589f4cc99275c74dcbdb4d63" x="0" y="0"/>
      <g p:name="vectorImage0" id="de4af6f64c5b4b3ea91540b29a0e43cc" transform="translate(16,16) scale(0.5,0.5)" style="visibility: visible;">
        <g x="0" y="0" p:name="vectorImage0Image" id="083014e0f4e447bba06f2cba12468e1b"><g><path d="M6 36h36v-4H6v4zm0-10h36v-4H6v4zm0-14v4h36v-4H6z" fill="rgba(255, 255, 255, 1)" style="fill: rgb(255, 255, 255);"/></g></g>
      </g>
      <g p:filter="url(#ad77eed9e50d4aaa8a51e572fabeb2f1)" dominant-baseline="auto" p:name="text0text" id="3886429c88ee4b81bb1161fd43f95051" style="fill: rgb(255, 255, 255); fill-opacity: 1; color: rgb(255, 255, 255); font-family: sans-serif; font-size: 17px; font-weight: 500; font-style: normal; text-decoration: none;"><g transform="translate(0,6)"><text><tspan x="72" y="28" style="font-family: sans-serif; font-size: 17px; font-weight: 500; font-style: normal; text-decoration: none; text-transform: none; fill: rgb(255, 255, 255); background-color: rgba(0, 0, 0, 0);">Liste des alertes</tspan></text></g></g>
      <g p:name="vectorImage1" id="4e5a9d3ffd2b407898538c4fd02beb31" transform="translate(326,16) scale(1,1)">
        <g x="0" y="0" p:name="vectorImage1Image" id="040543dd0e464c509a6326a7a986336d"><g><path d="M15.5 14h-.79l-.28-.27C15.41 12.59 16 11.11 16 9.5 16 5.91 13.09 3 9.5 3S3 5.91 3 9.5 5.91 16 9.5 16c1.61 0 3.09-.59 4.23-1.57l.27.28v.79l5 4.99L20.49 19l-4.99-5zm-6 0C7.01 14 5 11.99 5 9.5S7.01 5 9.5 5 14 7.01 14 9.5 11.99 14 9.5 14z" fill="rgba(255, 255, 255, 1)" style="fill: rgb(255, 255, 255);"/></g></g>
      </g>
      <g p:name="Icon2" id="6b70919ab1a44bdab89df33b32729c87" transform="translate(374,16) scale(1.3333333333333333,1.3333333333333333)">
        <g x="0" y="0" p:name="Icon2Image" id="0546057dc034483199430e51d02646b3"><g><path d="M9 5.5c.83 0 1.5-.67 1.5-1.5S9.83 2.5 9 2.5 7.5 3.17 7.5 4 8.17 5.5 9 5.5zm0 2c-.83 0-1.5.67-1.5 1.5s.67 1.5 1.5 1.5 1.5-.67 1.5-1.5S9.83 7.5 9 7.5zm0 5c-.83 0-1.5.67-1.5 1.5s.67 1.5 1.5 1.5 1.5-.67 1.5-1.5-.67-1.5-1.5-1.5z" fill="rgba(255, 255, 255, 1)" style="fill: rgb(255, 255, 255);"/></g></g>
      </g>
      <g p:name="vectorImage3" id="40f36e6c4fef4e58837c1226a1fa7d5c" transform="translate(16,16) scale(1.3333333333333333,1.3333333333333333)" style="visibility: hidden; display: none;">
        <g x="0" y="0" p:name="vectorImage3Image" id="e861514ca15b49b69310f1fe123d1e6c"><g><path d="M15 8.25H5.87l4.19-4.19L9 3 3 9l6 6 1.06-1.06-4.19-4.19H15v-1.5z" fill="rgba(255, 255, 255, 1)" style="fill: rgb(255, 255, 255);"/></g></g>
      </g>
    </g><g p:type="Shape" p:def="dgthanhan.AndroidNougatWireframe:fab" id="a1eb291c60f2445db211e6b047fecedc" transform="matrix(1,0,0,1,339,653)"><p:metadata><p:property name="box">56,56</p:property><p:property name="fillColor">#00BCD4FF</p:property><p:property name="strokeColor">#616161FF</p:property><p:property name="strokeStyle">0|</p:property><p:property name="shadowStyle">0|3|4|0.3</p:property><p:property name="textColor">#FFFFFFFF</p:property><p:property name="vectorImage0ImageData">24,24,ref://22e4b7654852d0d6d74bf79c90761734_svg</p:property></p:metadata>
      <defs>
        <filter x="-50%" width="200%" y="-50%" height="200%" p:name="rectangle1_shadowFilter" id="a7809c37e0dc4d62a86001769e65e168"><feGaussianBlur in="SourceAlpha" stdDeviation="4"/><feOffset dx="0" dy="3"/><feComponentTransfer><feFuncA type="linear" slope="0.3"/></feComponentTransfer><feMerge><feMergeNode/><feMergeNode in="SourceGraphic"/></feMerge></filter>
      </defs>
      <g p:filter="url(#a7809c37e0dc4d62a86001769e65e168)" p:name="rectangle1_globalGroup" id="c4fa578a93fc4fd78deb554d1ae1bcee" filter="url(#a7809c37e0dc4d62a86001769e65e168)">
        <rect p:filter="url(#03ff32da084a4ba285e86e8ae1b2effb)" rx="28" ry="28" style="fill: rgb(0, 188, 212); fill-opacity: 1; stroke: rgb(97, 97, 97); stroke-opacity: 1; stroke-width: 0;" width="56" height="56" p:name="rectangle1" id="edcd5d6c4dba4f21acb903776685845b" x="0" y="0"/>
      </g>
      <g p:name="vectorImage0" id="dd7c5649ab1e46d5ad06b52968ea4618" transform="translate(16,16) scale(1,1)">
        <g x="0" y="0" p:name="vectorImage0Image" id="e7230bbabf7a4ae2a283885d676e308d"><g>
	<path fill="rgba(255, 255, 255, 1)" fill-opacity="1" stroke-width="0.2" stroke-linejoin="round" d="M 18.9994,12.998L 12.9994,12.998L 12.9994,18.998L 10.9994,18.998L 10.9994,12.998L 4.99936,12.998L 4.99936,10.998L 10.9994,10.998L 10.9994,4.99805L 12.9994,4.99805L 12.9994,10.998L 18.9994,10.998L 18.9994,12.998 Z " style="fill: rgb(255, 255, 255);"/>
</g></g>
      </g>
    </g><g p:type="Group" transform="matrix(1,0,0,1,0,56)" id="aa0bdd6729044aff974fa277749a0e6e" p:sizing-gow="410" p:sizing-goh="48"><g p:type="Shape" p:def="dgthanhan.AndroidNougatWireframe:tabitem" p:sc="Inactive tab" id="95c1f1daff3341ca8030d7efe56a36f2" transform="matrix(1,0,0,1,206,0)" p:sizing-ox="206" p:sizing-oy="0" p:sizing-ow="102" p:sizing-oh="48"><p:metadata><p:property name="box">102,48</p:property><p:property name="fillColor">#00BCD4FF</p:property><p:property name="textAlignment">1,1</p:property><p:property name="textFont">sans-serif|500|normal|12px|none</p:property><p:property name="text0">Localisation &lt;span xmlns="http://www.w3.org/1999/xhtml" style="font-size: 11px; text-align: left;"&gt;🌍&lt;/span&gt;</p:property><p:property name="text0ImageData">0,0,data:image/svg+xml;utf8,&lt;svg&gt;&lt;/svg&gt;</p:property><p:property name="textColor">#FFFFFFFF</p:property><p:property name="focused">false</p:property><p:property name="strokeColor">#FFFF00FF</p:property><p:property name="iconImageData">0,0,data:</p:property></p:metadata>
      <rect p:filter="url(#81840e8643eb4d9bb3f7d832349e1ea4)" rx="0" ry="0" style="fill: rgb(0, 188, 212); fill-opacity: 1; stroke: rgb(0, 0, 0); stroke-opacity: 1; stroke-width: 0;" width="102" height="48" p:name="rectangle0" id="d39426882aca494d95c167239b6520c7" x="0" y="0"/>
      <g p:name="text0Icon" id="f4621f0f3355406fb19b0d73fc2e652b" transform="translate(0,16) scale(102,14)">
        <g x="0" y="0" p:name="text0IconImage" id="119964d0c67b40dfa32a7b2f27c14b1a"><g/></g>
      </g>
      <g p:filter="url(#0a71cfc4ae264fe598068ed54962784e)" dominant-baseline="auto" p:name="text0text" id="f31795cc48b04fbeb9e30c0a727a2c41" style="fill: rgb(255, 255, 255); fill-opacity: 0.7; color: rgba(255, 255, 255, 0.701961); font-family: sans-serif; font-size: 12px; font-weight: 500; font-style: normal; text-decoration: none;"><g transform="translate(0,0)"><text><tspan x="10" y="27" style="font-family: sans-serif; font-size: 12px; font-weight: 500; font-style: normal; text-decoration: none; text-transform: none; fill: rgba(255, 255, 255, 0.701961); background-color: rgba(0, 0, 0, 0);">Localisation </tspan><tspan x="79" y="27" style="font-family: sans-serif; font-size: 11px; font-weight: 500; font-style: normal; text-decoration: none; text-transform: none; fill: rgba(255, 255, 255, 0.701961); background-color: rgba(0, 0, 0, 0);">🌍</tspan></text></g></g>
      <rect p:filter="url(#db089ea8d84447f3b7ec5cf3570a0b4f)" rx="0" ry="0" style="fill: rgb(255, 255, 0); fill-opacity: 1; stroke: rgb(255, 255, 255); stroke-opacity: 1; stroke-width: 0; visibility: hidden; display: none;" width="102" height="2" p:name="rectangle1" id="79d8934b2690410da2ce39631101850d" x="0" y="46"/>
      <g p:name="icon" id="134a58972c4f44ab9ea5a2ab1380086d" transform="translate(39,12) scale(24,24)">
        <g x="0" y="0" p:name="iconImage" id="1d0cd426561e4c15a13b9babe1d45287"/>
      </g>
    </g><g p:type="Shape" p:def="dgthanhan.AndroidNougatWireframe:tabitem" p:sc="Focused tab" id="eca0e547b3eb4c4daa7b4ddfcde4178e" transform="matrix(1,0,0,1,0,0)" p:sizing-ox="0" p:sizing-oy="0" p:sizing-ow="104" p:sizing-oh="48"><p:metadata><p:property name="box">104,48</p:property><p:property name="fillColor">#00BCD4FF</p:property><p:property name="textAlignment">1,1</p:property><p:property name="textFont">sans-serif|500|normal|12px|none</p:property><p:property name="text0">Toutes &lt;span xmlns="http://www.w3.org/1999/xhtml" style="font-size: 11px; text-align: left;"&gt;⏲🌍&lt;/span&gt;&lt;span xmlns="http://www.w3.org/1999/xhtml" style="font-size: 11px; text-align: left;"&gt;🔋&lt;/span&gt;</p:property><p:property name="text0ImageData">0,0,data:image/svg+xml;utf8,&lt;svg&gt;&lt;/svg&gt;</p:property><p:property name="textColor">#FFFFFFFF</p:property><p:property name="focused">true</p:property><p:property name="strokeColor">#FFFF00FF</p:property><p:property name="iconImageData">0,0,data:</p:property></p:metadata>
      <rect p:filter="url(#81840e8643eb4d9bb3f7d832349e1ea4)" rx="0" ry="0" style="fill: rgb(0, 188, 212); fill-opacity: 1; stroke: rgb(0, 0, 0); stroke-opacity: 1; stroke-width: 0;" width="104" height="48" p:name="rectangle0" id="e2968b8eda4c491bb7e8fcbffcf2b6bf" x="0" y="0"/>
      <g p:name="text0Icon" id="a7e6eb5445df403f80d7c6de581ca838" transform="translate(0,16) scale(104,14)">
        <g x="0" y="0" p:name="text0IconImage" id="ec8e32994245402ab0ef1184b6c60e0b"><g/></g>
      </g>
      <g p:filter="url(#0a71cfc4ae264fe598068ed54962784e)" dominant-baseline="auto" p:name="text0text" id="8b7e0f3e5cc7451ebc82863ef4255ac8" style="fill: rgb(255, 255, 255); fill-opacity: 1; color: rgb(255, 255, 255); font-family: sans-serif; font-size: 12px; font-weight: 500; font-style: normal; text-decoration: none;"><g transform="translate(0,0)"><text><tspan x="13" y="27" style="font-family: sans-serif; font-size: 12px; font-weight: 500; font-style: normal; text-decoration: none; text-transform: none; fill: rgb(255, 255, 255); background-color: rgba(0, 0, 0, 0);">Toutes </tspan><tspan x="52" y="27" style="font-family: sans-serif; font-size: 11px; font-weight: 500; font-style: normal; text-decoration: none; text-transform: none; fill: rgb(255, 255, 255); background-color: rgba(0, 0, 0, 0);">⏲🌍</tspan><tspan x="81" y="27" style="font-family: sans-serif; font-size: 11px; font-weight: 500; font-style: normal; text-decoration: none; text-transform: none; fill: rgb(255, 255, 255); background-color: rgba(0, 0, 0, 0);">🔋</tspan></text></g></g>
      <rect p:filter="url(#db089ea8d84447f3b7ec5cf3570a0b4f)" rx="0" ry="0" style="fill: rgb(255, 255, 0); fill-opacity: 1; stroke: rgb(255, 255, 255); stroke-opacity: 1; stroke-width: 0; visibility: visible;" width="104" height="2" p:name="rectangle1" id="0ab92b1df627465ab4556633dfaec35e" x="0" y="46"/>
      <g p:name="icon" id="0213695967d945d9a997d914714361ad" transform="translate(40,12) scale(24,24)">
        <g x="0" y="0" p:name="iconImage" id="55badd57a5ab4f4ab2c73a6cda1f6b2e"/>
      </g>
    </g><g p:type="Shape" p:def="dgthanhan.AndroidNougatWireframe:tabitem" p:sc="Inactive tab" id="d987f6398cd14515b1d95cd7fb13f0db" transform="matrix(1,0,0,1,104,0)" p:sizing-ox="104" p:sizing-oy="0" p:sizing-ow="102" p:sizing-oh="48"><p:metadata><p:property name="box">102,48</p:property><p:property name="fillColor">#00BCD4FF</p:property><p:property name="textAlignment">1,1</p:property><p:property name="textFont">sans-serif|500|normal|12px|none</p:property><p:property name="text0">Temps &lt;span xmlns="http://www.w3.org/1999/xhtml" style="font-size: 11px; text-align: left;"&gt;⏲&lt;/span&gt;</p:property><p:property name="text0ImageData">0,0,data:image/svg+xml;utf8,&lt;svg&gt;&lt;/svg&gt;</p:property><p:property name="textColor">#FFFFFFFF</p:property><p:property name="focused">false</p:property><p:property name="strokeColor">#FFFF00FF</p:property><p:property name="iconImageData">0,0,data:</p:property></p:metadata>
      <rect p:filter="url(#81840e8643eb4d9bb3f7d832349e1ea4)" rx="0" ry="0" style="fill: rgb(0, 188, 212); fill-opacity: 1; stroke: rgb(0, 0, 0); stroke-opacity: 1; stroke-width: 0;" width="102" height="48" p:name="rectangle0" id="149115511c9c431586ccfae803ba8858" x="0" y="0"/>
      <g p:name="text0Icon" id="6ea6647eaff44b30b4eb288c43fbbd88" transform="translate(0,16) scale(102,14)">
        <g x="0" y="0" p:name="text0IconImage" id="5326fdb50fcd49ffb058c0cb35ba35d0"><g/></g>
      </g>
      <g p:filter="url(#0a71cfc4ae264fe598068ed54962784e)" dominant-baseline="auto" p:name="text0text" id="fc7e230fdae24b38b4513202950a2153" style="fill: rgb(255, 255, 255); fill-opacity: 0.7; color: rgba(255, 255, 255, 0.701961); font-family: sans-serif; font-size: 12px; font-weight: 500; font-style: normal; text-decoration: none;"><g transform="translate(0,0)"><text><tspan x="24" y="27" style="font-family: sans-serif; font-size: 12px; font-weight: 500; font-style: normal; text-decoration: none; text-transform: none; fill: rgba(255, 255, 255, 0.701961); background-color: rgba(0, 0, 0, 0);">Temps </tspan><tspan x="63" y="27" style="font-family: sans-serif; font-size: 11px; font-weight: 500; font-style: normal; text-decoration: none; text-transform: none; fill: rgba(255, 255, 255, 0.701961); background-color: rgba(0, 0, 0, 0);">⏲</tspan></text></g></g>
      <rect p:filter="url(#db089ea8d84447f3b7ec5cf3570a0b4f)" rx="0" ry="0" style="fill: rgb(255, 255, 0); fill-opacity: 1; stroke: rgb(255, 255, 255); stroke-opacity: 1; stroke-width: 0; visibility: hidden; display: none;" width="102" height="2" p:name="rectangle1" id="bebe52e3e96343c5b3c31afa3616ffd0" x="0" y="46"/>
      <g p:name="icon" id="3a4f4d3ca5bb4fed8c918fddaffd2af5" transform="translate(39,12) scale(24,24)">
        <g x="0" y="0" p:name="iconImage" id="3730bacc6b1145438196a01fddf4286b"/>
      </g>
    </g><g p:type="Shape" p:def="dgthanhan.AndroidNougatWireframe:tabitem" p:sc="Inactive tab" id="4e8691f7901f435cb0784ee063924259" transform="matrix(1,0,0,1,308,0)" p:sizing-ox="308" p:sizing-oy="0" p:sizing-ow="102" p:sizing-oh="48"><p:metadata><p:property name="box">102,48</p:property><p:property name="fillColor">#00BCD4FF</p:property><p:property name="textAlignment">1,1</p:property><p:property name="textFont">sans-serif|500|normal|12px|none</p:property><p:property name="text0">Batterie 🔋</p:property><p:property name="text0ImageData">0,0,data:image/svg+xml;utf8,&lt;svg&gt;&lt;/svg&gt;</p:property><p:property name="textColor">#FFFFFFFF</p:property><p:property name="focused">false</p:property><p:property name="strokeColor">#FFFF00FF</p:property><p:property name="iconImageData">0,0,data:</p:property></p:metadata>
      <rect p:filter="url(#81840e8643eb4d9bb3f7d832349e1ea4)" rx="0" ry="0" style="fill: rgb(0, 188, 212); fill-opacity: 1; stroke: rgb(0, 0, 0); stroke-opacity: 1; stroke-width: 0;" width="102" height="48" p:name="rectangle0" id="5286aed004e04f6ea9f150d41444f3b4" x="0" y="0"/>
      <g p:name="text0Icon" id="38d485231ce94b13b8400721f8279337" transform="translate(0,16) scale(102,14)">
        <g x="0" y="0" p:name="text0IconImage" id="f2bb6a60af23428893774a40598c4a46"><g/></g>
      </g>
      <g p:filter="url(#0a71cfc4ae264fe598068ed54962784e)" dominant-baseline="auto" p:name="text0text" id="9b6d46f37dab45e5ad74815604052526" style="fill: rgb(255, 255, 255); fill-opacity: 0.7; color: rgba(255, 255, 255, 0.701961); font-family: sans-serif; font-size: 12px; font-weight: 500; font-style: normal; text-decoration: none;"><g transform="translate(0,0)"><text><tspan x="23" y="27" style="font-family: sans-serif; font-size: 12px; font-weight: 500; font-style: normal; text-decoration: none; text-transform: none; fill: rgba(255, 255, 255, 0.701961); background-color: rgba(0, 0, 0, 0);">Batterie 🔋</tspan></text></g></g>
      <rect p:filter="url(#db089ea8d84447f3b7ec5cf3570a0b4f)" rx="0" ry="0" style="fill: rgb(255, 255, 0); fill-opacity: 1; stroke: rgb(255, 255, 255); stroke-opacity: 1; stroke-width: 0; visibility: hidden; display: none;" width="102" height="2" p:name="rectangle1" id="5ee234ead3cd4e16b2118edfca28566b" x="0" y="46"/>
      <g p:name="icon" id="0537691d8aa547e8b8e2fa2db67d0f21" transform="translate(39,12) scale(24,24)">
        <g x="0" y="0" p:name="iconImage" id="fed83fdb9f1944f88af17f30c8dbe2bc"/>
      </g>
    </g></g><g p:type="Shape" p:def="dgthanhan.AndroidNougatWireframe:datatablecell" id="1bee3644dd794421a12a02e6692decc2" transform="matrix(1,0,0,1,0,117)"><p:metadata><p:property name="box">404,48</p:property><p:property name="fillColor">#FFFFFF00</p:property><p:property name="strokeColor">#CCCCCCFF</p:property><p:property name="strokeStyle">1|</p:property><p:property name="vectorImage0ImageData">24,24,ref://2832bc9e85c15a8bb837aecf96852981_svg</p:property><p:property name="textAlignment">0,1</p:property><p:property name="textColor">#000000DE</p:property><p:property name="textFont">sans-serif|normal|normal|11px|none</p:property><p:property name="text0">Prendre du pain 🌍</p:property><p:property name="text0ImageData">0,0,data:image/svg+xml;utf8,&lt;svg&gt;&lt;/svg&gt;</p:property><p:property name="vectorImage1ImageData">24,24,ref://df9cd3c8416d19bc571a757a36d5c99a_svg</p:property><p:property name="checkMode">checked</p:property><p:property name="trailingIconImageData">24,24,ref://967af882eff2a814d06d619ea3402e10_svg</p:property></p:metadata>
      <defs>
        <clipPath p:name="sbDefaultClipPath" id="0c1834db4fa545faba8822bb22c5e6bf">
          <rect p:filter="url(#c1b914aabfbe4797bbf3eb77de3b233f)" rx="0" ry="0" style="fill: rgb(255, 255, 255); fill-opacity: 0; stroke: rgb(96, 96, 96); stroke-opacity: 1; stroke-width: 0;" width="404" height="48" p:name="rectangle0" id="fa14944f571946308c5ba640c5cd0b98" x="0" y="0"/>
        </clipPath>
      </defs>
      <g style="clip-path: url(#0c1834db4fa545faba8822bb22c5e6bf);">
        <path p:filter="url(#820f92b3aab4428d85392f6601564aee)" d="M 0 0 L 448 0 L 448 65 L 0 65 L 0 0 z" style="fill: rgb(255, 255, 255); fill-opacity: 0; stroke: rgb(204, 204, 204); stroke-opacity: 1; stroke-width: 1;" p:name="pathRect0" id="44f7f028d6904bc7b8eb8e6f5b09ef5e" rx="0" ry="0" transform="translate(-20.5,-17.5)"/>
      </g>
      <g p:name="vectorImage0" id="b222b157b1804b36b10bb279a339d925" transform="translate(21,12) scale(1,1)" style="visibility: hidden; display: none;">
        <g x="0" y="0" p:name="vectorImage0Image" id="0984e80ad1bd4172bc36043b1ad401cd"><g>
	<path fill="rgba(96, 96, 96, 1)" fill-opacity="1" stroke-width="0.2" stroke-linejoin="round" d="M 18.9994,2.99807L 4.99939,2.99807C 3.89439,2.99807 2.99939,3.89307 2.99939,4.99807L 2.99939,18.9981C 2.99939,20.1031 3.89439,20.9981 4.99939,20.9981L 18.9994,20.9981C 20.1034,20.9981 20.9994,20.1031 20.9994,18.9981L 20.9994,4.99807C 20.9994,3.89307 20.1034,2.99807 18.9994,2.99807 Z M 18.9994,4.99807L 18.9994,18.9981L 4.99939,18.9991L 4.99939,4.99807L 18.9994,4.99807 Z " style="fill: rgb(96, 96, 96);"/>
</g></g>
      </g>
      <g p:name="text0Icon" id="98e80b8ffcf84feba81d24c3d9bffb01" transform="translate(66,9) scale(296,30)">
        <g x="0" y="0" p:name="text0IconImage" id="1afc67783241447aa1e9359b014436cd"><g/></g>
      </g>
      <g p:filter="url(#7e68ecf2880a457e9c8b371fdad84d67)" dominant-baseline="auto" p:name="text0text" id="3ab198c2601b4d6985211041fab10b87" style="fill: rgb(0, 0, 0); fill-opacity: 0.870588; color: rgba(0, 0, 0, 0.870588); font-family: sans-serif; font-size: 11px; font-weight: normal; font-style: normal; text-decoration: none;"><g transform="translate(0,9)"><text><tspan x="66" y="19" style="font-family: sans-serif; font-size: 11px; font-weight: normal; font-style: normal; text-decoration: none; text-transform: none; fill: rgba(0, 0, 0, 0.870588); background-color: rgba(0, 0, 0, 0);">Prendre du pain 🌍</tspan></text></g></g>
      <g p:name="vectorImage1" id="6e38d912c0ec45fe92ceebb84e794e98" transform="translate(21,12) scale(1,1)" style="visibility: visible;">
        <g x="0" y="0" p:name="vectorImage1Image" id="98d3199643c6463899d6070b7b1b7142"><g>
	<path fill="rgba(0, 188, 212, 1)" fill-opacity="1" stroke-width="0.2" stroke-linejoin="round" d="M 9.9994,16.9981L 4.9994,11.9981L 6.4134,10.5841L 9.9994,14.1701L 17.5854,6.58407L 18.9994,7.99807M 18.9994,2.99807L 4.9994,2.99807C 3.8934,2.99807 2.9994,3.89307 2.9994,4.99807L 2.9994,18.9981C 2.9994,20.1031 3.8934,20.9981 4.9994,20.9981L 18.9994,20.9981C 20.1044,20.9981 20.9994,20.1031 20.9994,18.9981L 20.9994,4.99807C 20.9994,3.89307 20.1044,2.99807 18.9994,2.99807 Z " style="fill: rgb(0, 188, 212);"/>
</g></g>
      </g>
      <g p:name="trailingIcon" id="58b8da239fd74072b683cdd0ae8a3584" transform="translate(362,15) scale(0.75,0.75)">
        <g x="0" y="0" p:name="trailingIconImage" id="1ab153ff6af740fe9e5ff55eb21d2856"><g>
	<path fill="rgba(0, 0, 0, 0.54)" fill-opacity="1" stroke-width="0.2" stroke-linejoin="round" d="M 20.7062,7.04108C 21.0972,6.65002 21.0972,6.01703 20.7062,5.62708L 18.3702,3.29108C 17.9802,2.90002 17.3472,2.90002 16.9562,3.29108L 15.1242,5.12305L 18.8742,8.87305M 2.99916,17.248L 2.99916,20.998L 6.74916,20.998L 17.8142,9.93304L 14.0642,6.18304L 2.99916,17.248 Z " style="fill: rgba(0, 0, 0, 0.541176);"/>
</g></g>
      </g>
    </g><g p:type="Shape" p:def="dgthanhan.AndroidNougatWireframe:datatablecell" id="86458b47877348528da895e53c22ca61" transform="matrix(1,0,0,1,0,171)"><p:metadata><p:property name="box">404,48</p:property><p:property name="fillColor">#FFFFFF00</p:property><p:property name="strokeColor">#CCCCCCFF</p:property><p:property name="strokeStyle">1|</p:property><p:property name="vectorImage0ImageData">24,24,ref://2832bc9e85c15a8bb837aecf96852981_svg</p:property><p:property name="textAlignment">0,1</p:property><p:property name="textColor">#000000DE</p:property><p:property name="textFont">sans-serif|normal|normal|11px|none</p:property><p:property name="text0">Sortir le chien ⏲</p:property><p:property name="text0ImageData">0,0,data:image/svg+xml;utf8,&lt;svg&gt;&lt;/svg&gt;</p:property><p:property name="vectorImage1ImageData">24,24,ref://df9cd3c8416d19bc571a757a36d5c99a_svg</p:property><p:property name="checkMode">checked</p:property><p:property name="trailingIconImageData">24,24,ref://967af882eff2a814d06d619ea3402e10_svg</p:property></p:metadata>
      <defs>
        <clipPath p:name="sbDefaultClipPath" id="6447fd518d624c4ebabd597e9687eec3">
          <rect p:filter="url(#c1b914aabfbe4797bbf3eb77de3b233f)" rx="0" ry="0" style="fill: rgb(255, 255, 255); fill-opacity: 0; stroke: rgb(96, 96, 96); stroke-opacity: 1; stroke-width: 0;" width="404" height="48" p:name="rectangle0" id="fae26bed4a2a4fd284aba9f02d5c3edf" x="0" y="0"/>
        </clipPath>
      </defs>
      <g style="clip-path: url(#6447fd518d624c4ebabd597e9687eec3);">
        <path p:filter="url(#820f92b3aab4428d85392f6601564aee)" d="M 0 0 L 448 0 L 448 65 L 0 65 L 0 0 z" style="fill: rgb(255, 255, 255); fill-opacity: 0; stroke: rgb(204, 204, 204); stroke-opacity: 1; stroke-width: 1;" p:name="pathRect0" id="92681f65b07743f19104f699478f6a5a" rx="0" ry="0" transform="translate(-20.5,-17.5)"/>
      </g>
      <g p:name="vectorImage0" id="192acd15041044b0b485319b7ed0da75" transform="translate(21,12) scale(1,1)" style="visibility: hidden; display: none;">
        <g x="0" y="0" p:name="vectorImage0Image" id="4530863ba93c4d918688b7267e28ea68"><g>
	<path fill="rgba(96, 96, 96, 1)" fill-opacity="1" stroke-width="0.2" stroke-linejoin="round" d="M 18.9994,2.99807L 4.99939,2.99807C 3.89439,2.99807 2.99939,3.89307 2.99939,4.99807L 2.99939,18.9981C 2.99939,20.1031 3.89439,20.9981 4.99939,20.9981L 18.9994,20.9981C 20.1034,20.9981 20.9994,20.1031 20.9994,18.9981L 20.9994,4.99807C 20.9994,3.89307 20.1034,2.99807 18.9994,2.99807 Z M 18.9994,4.99807L 18.9994,18.9981L 4.99939,18.9991L 4.99939,4.99807L 18.9994,4.99807 Z " style="fill: rgb(96, 96, 96);"/>
</g></g>
      </g>
      <g p:name="text0Icon" id="f26c2581ce13443ebc536e230861c795" transform="translate(66,9) scale(296,30)">
        <g x="0" y="0" p:name="text0IconImage" id="5c6bbd013d89447e977c3acee4c7bd7b"><g/></g>
      </g>
      <g p:filter="url(#7e68ecf2880a457e9c8b371fdad84d67)" dominant-baseline="auto" p:name="text0text" id="af1d0b92ff3b42be913cfabe3253979d" style="fill: rgb(0, 0, 0); fill-opacity: 0.870588; color: rgba(0, 0, 0, 0.870588); font-family: sans-serif; font-size: 11px; font-weight: normal; font-style: normal; text-decoration: none;"><g transform="translate(0,9)"><text><tspan x="66" y="19" style="font-family: sans-serif; font-size: 11px; font-weight: normal; font-style: normal; text-decoration: none; text-transform: none; fill: rgba(0, 0, 0, 0.870588); background-color: rgba(0, 0, 0, 0);">Sortir le chien ⏲</tspan></text></g></g>
      <g p:name="vectorImage1" id="61b8abe396cb40019b197e658d830070" transform="translate(21,12) scale(1,1)" style="visibility: visible;">
        <g x="0" y="0" p:name="vectorImage1Image" id="724898a310904809b570229d36dbd163"><g>
	<path fill="rgba(0, 188, 212, 1)" fill-opacity="1" stroke-width="0.2" stroke-linejoin="round" d="M 9.9994,16.9981L 4.9994,11.9981L 6.4134,10.5841L 9.9994,14.1701L 17.5854,6.58407L 18.9994,7.99807M 18.9994,2.99807L 4.9994,2.99807C 3.8934,2.99807 2.9994,3.89307 2.9994,4.99807L 2.9994,18.9981C 2.9994,20.1031 3.8934,20.9981 4.9994,20.9981L 18.9994,20.9981C 20.1044,20.9981 20.9994,20.1031 20.9994,18.9981L 20.9994,4.99807C 20.9994,3.89307 20.1044,2.99807 18.9994,2.99807 Z " style="fill: rgb(0, 188, 212);"/>
</g></g>
      </g>
      <g p:name="trailingIcon" id="e8d7f081e8d04121822e9d6bd4c2fc83" transform="translate(362,15) scale(0.75,0.75)">
        <g x="0" y="0" p:name="trailingIconImage" id="277714d7322d4692a305791a9ce28947"><g>
	<path fill="rgba(0, 0, 0, 0.54)" fill-opacity="1" stroke-width="0.2" stroke-linejoin="round" d="M 20.7062,7.04108C 21.0972,6.65002 21.0972,6.01703 20.7062,5.62708L 18.3702,3.29108C 17.9802,2.90002 17.3472,2.90002 16.9562,3.29108L 15.1242,5.12305L 18.8742,8.87305M 2.99916,17.248L 2.99916,20.998L 6.74916,20.998L 17.8142,9.93304L 14.0642,6.18304L 2.99916,17.248 Z " style="fill: rgba(0, 0, 0, 0.541176);"/>
</g></g>
      </g>
    </g><g p:type="Shape" p:def="dgthanhan.AndroidNougatWireframe:datatablecell" id="b276547c679c4722ab1eb6d726139c0c" transform="matrix(1,0,0,1,0,225)"><p:metadata><p:property name="box">404,48</p:property><p:property name="fillColor">#FFFFFF00</p:property><p:property name="strokeColor">#CCCCCCFF</p:property><p:property name="strokeStyle">1|</p:property><p:property name="vectorImage0ImageData">24,24,ref://2832bc9e85c15a8bb837aecf96852981_svg</p:property><p:property name="textAlignment">0,1</p:property><p:property name="textColor">#000000DE</p:property><p:property name="textFont">sans-serif|normal|normal|11px|none</p:property><p:property name="text0">Cueillir des fleurs ⏲🌍</p:property><p:property name="text0ImageData">0,0,data:image/svg+xml;utf8,&lt;svg&gt;&lt;/svg&gt;</p:property><p:property name="vectorImage1ImageData">24,24,ref://df9cd3c8416d19bc571a757a36d5c99a_svg</p:property><p:property name="checkMode">checked</p:property><p:property name="trailingIconImageData">24,24,ref://967af882eff2a814d06d619ea3402e10_svg</p:property></p:metadata>
      <defs>
        <clipPath p:name="sbDefaultClipPath" id="62e9fc84c4ae46ea8768dec042334c2e">
          <rect p:filter="url(#c1b914aabfbe4797bbf3eb77de3b233f)" rx="0" ry="0" style="fill: rgb(255, 255, 255); fill-opacity: 0; stroke: rgb(96, 96, 96); stroke-opacity: 1; stroke-width: 0;" width="404" height="48" p:name="rectangle0" id="f827134fb3cf487aafeda336ac652a71" x="0" y="0"/>
        </clipPath>
      </defs>
      <g style="clip-path: url(#62e9fc84c4ae46ea8768dec042334c2e);">
        <path p:filter="url(#820f92b3aab4428d85392f6601564aee)" d="M 0 0 L 448 0 L 448 65 L 0 65 L 0 0 z" style="fill: rgb(255, 255, 255); fill-opacity: 0; stroke: rgb(204, 204, 204); stroke-opacity: 1; stroke-width: 1;" p:name="pathRect0" id="70d11dc164734952996220267718a40a" rx="0" ry="0" transform="translate(-20.5,-17.5)"/>
      </g>
      <g p:name="vectorImage0" id="3bbe0d5c57a44ee49497ed87d8bb5630" transform="translate(21,12) scale(1,1)" style="visibility: hidden; display: none;">
        <g x="0" y="0" p:name="vectorImage0Image" id="321826f8791440d1978c8419f1d81af9"><g>
	<path fill="rgba(96, 96, 96, 1)" fill-opacity="1" stroke-width="0.2" stroke-linejoin="round" d="M 18.9994,2.99807L 4.99939,2.99807C 3.89439,2.99807 2.99939,3.89307 2.99939,4.99807L 2.99939,18.9981C 2.99939,20.1031 3.89439,20.9981 4.99939,20.9981L 18.9994,20.9981C 20.1034,20.9981 20.9994,20.1031 20.9994,18.9981L 20.9994,4.99807C 20.9994,3.89307 20.1034,2.99807 18.9994,2.99807 Z M 18.9994,4.99807L 18.9994,18.9981L 4.99939,18.9991L 4.99939,4.99807L 18.9994,4.99807 Z " style="fill: rgb(96, 96, 96);"/>
</g></g>
      </g>
      <g p:name="text0Icon" id="175271ff14d84a9c95348e951d3e2044" transform="translate(66,9) scale(296,30)">
        <g x="0" y="0" p:name="text0IconImage" id="5cdafe05670c4708a41bbb1833ecd716"><g/></g>
      </g>
      <g p:filter="url(#7e68ecf2880a457e9c8b371fdad84d67)" dominant-baseline="auto" p:name="text0text" id="92408b2dc7bc4ba38ac17c84acaa6a99" style="fill: rgb(0, 0, 0); fill-opacity: 0.870588; color: rgba(0, 0, 0, 0.870588); font-family: sans-serif; font-size: 11px; font-weight: normal; font-style: normal; text-decoration: none;"><g transform="translate(0,9)"><text><tspan x="66" y="19" style="font-family: sans-serif; font-size: 11px; font-weight: normal; font-style: normal; text-decoration: none; text-transform: none; fill: rgba(0, 0, 0, 0.870588); background-color: rgba(0, 0, 0, 0);">Cueillir des fleurs ⏲🌍</tspan></text></g></g>
      <g p:name="vectorImage1" id="f4a1fb663c88431bae92ae53a6aa91f5" transform="translate(21,12) scale(1,1)" style="visibility: visible;">
        <g x="0" y="0" p:name="vectorImage1Image" id="bb3e87040c7d4a968a32055d36301f11"><g>
	<path fill="rgba(0, 188, 212, 1)" fill-opacity="1" stroke-width="0.2" stroke-linejoin="round" d="M 9.9994,16.9981L 4.9994,11.9981L 6.4134,10.5841L 9.9994,14.1701L 17.5854,6.58407L 18.9994,7.99807M 18.9994,2.99807L 4.9994,2.99807C 3.8934,2.99807 2.9994,3.89307 2.9994,4.99807L 2.9994,18.9981C 2.9994,20.1031 3.8934,20.9981 4.9994,20.9981L 18.9994,20.9981C 20.1044,20.9981 20.9994,20.1031 20.9994,18.9981L 20.9994,4.99807C 20.9994,3.89307 20.1044,2.99807 18.9994,2.99807 Z " style="fill: rgb(0, 188, 212);"/>
</g></g>
      </g>
      <g p:name="trailingIcon" id="2e7124748a264fa1bb36cc7e3549ebf1" transform="translate(362,15) scale(0.75,0.75)">
        <g x="0" y="0" p:name="trailingIconImage" id="29261b6401e340479dfaeb1161e91c7a"><g>
	<path fill="rgba(0, 0, 0, 0.54)" fill-opacity="1" stroke-width="0.2" stroke-linejoin="round" d="M 20.7062,7.04108C 21.0972,6.65002 21.0972,6.01703 20.7062,5.62708L 18.3702,3.29108C 17.9802,2.90002 17.3472,2.90002 16.9562,3.29108L 15.1242,5.12305L 18.8742,8.87305M 2.99916,17.248L 2.99916,20.998L 6.74916,20.998L 17.8142,9.93304L 14.0642,6.18304L 2.99916,17.248 Z " style="fill: rgba(0, 0, 0, 0.541176);"/>
</g></g>
      </g>
    </g><g p:type="Shape" p:def="dgthanhan.AndroidNougatWireframe:datatablecell" id="7923ce46b35b450e9b3c317fd2333a41" transform="matrix(1,0,0,1,0,331)"><p:metadata><p:property name="box">404,48</p:property><p:property name="fillColor">#FFFFFF00</p:property><p:property name="strokeColor">#CCCCCCFF</p:property><p:property name="strokeStyle">1|</p:property><p:property name="vectorImage0ImageData">24,24,ref://2832bc9e85c15a8bb837aecf96852981_svg</p:property><p:property name="textAlignment">0,1</p:property><p:property name="textColor">#000000DE</p:property><p:property name="textFont">sans-serif|normal|normal|11px|none</p:property><p:property name="text0">Regarder ma serie préférée 🔋</p:property><p:property name="text0ImageData">0,0,data:image/svg+xml;utf8,&lt;svg&gt;&lt;/svg&gt;</p:property><p:property name="vectorImage1ImageData">24,24,ref://df9cd3c8416d19bc571a757a36d5c99a_svg</p:property><p:property name="checkMode">checked</p:property><p:property name="trailingIconImageData">24,24,ref://967af882eff2a814d06d619ea3402e10_svg</p:property></p:metadata>
      <defs>
        <clipPath p:name="sbDefaultClipPath" id="1e84cdb8087b42dbb78b88c15c47d61a">
          <rect p:filter="url(#c1b914aabfbe4797bbf3eb77de3b233f)" rx="0" ry="0" style="fill: rgb(255, 255, 255); fill-opacity: 0; stroke: rgb(96, 96, 96); stroke-opacity: 1; stroke-width: 0;" width="404" height="48" p:name="rectangle0" id="b4773af0ae6f447aad62207bfba22f68" x="0" y="0"/>
        </clipPath>
      </defs>
      <g style="clip-path: url(#1e84cdb8087b42dbb78b88c15c47d61a);">
        <path p:filter="url(#820f92b3aab4428d85392f6601564aee)" d="M 0 0 L 448 0 L 448 65 L 0 65 L 0 0 z" style="fill: rgb(255, 255, 255); fill-opacity: 0; stroke: rgb(204, 204, 204); stroke-opacity: 1; stroke-width: 1;" p:name="pathRect0" id="fce94026d0914960a6b2965158d4f5a9" rx="0" ry="0" transform="translate(-20.5,-17.5)"/>
      </g>
      <g p:name="vectorImage0" id="95fd000db3cc47b584611a6bc16dc8ba" transform="translate(21,12) scale(1,1)" style="visibility: hidden; display: none;">
        <g x="0" y="0" p:name="vectorImage0Image" id="22621370287144e385a9e6cf9d722f7c"><g>
	<path fill="rgba(96, 96, 96, 1)" fill-opacity="1" stroke-width="0.2" stroke-linejoin="round" d="M 18.9994,2.99807L 4.99939,2.99807C 3.89439,2.99807 2.99939,3.89307 2.99939,4.99807L 2.99939,18.9981C 2.99939,20.1031 3.89439,20.9981 4.99939,20.9981L 18.9994,20.9981C 20.1034,20.9981 20.9994,20.1031 20.9994,18.9981L 20.9994,4.99807C 20.9994,3.89307 20.1034,2.99807 18.9994,2.99807 Z M 18.9994,4.99807L 18.9994,18.9981L 4.99939,18.9991L 4.99939,4.99807L 18.9994,4.99807 Z " style="fill: rgb(96, 96, 96);"/>
</g></g>
      </g>
      <g p:name="text0Icon" id="dbe092598bbb4fb8a5bfcf92e648d89c" transform="translate(66,9) scale(296,30)">
        <g x="0" y="0" p:name="text0IconImage" id="5496e13c11804760a5a77996d7fd3d62"><g/></g>
      </g>
      <g p:filter="url(#7e68ecf2880a457e9c8b371fdad84d67)" dominant-baseline="auto" p:name="text0text" id="aba5be49edb445e5be58238f5c4cb8e2" style="fill: rgb(0, 0, 0); fill-opacity: 0.870588; color: rgba(0, 0, 0, 0.870588); font-family: sans-serif; font-size: 11px; font-weight: normal; font-style: normal; text-decoration: none;"><g transform="translate(0,9)"><text><tspan x="66" y="19" style="font-family: sans-serif; font-size: 11px; font-weight: normal; font-style: normal; text-decoration: none; text-transform: none; fill: rgba(0, 0, 0, 0.870588); background-color: rgba(0, 0, 0, 0);">Regarder ma serie préférée 🔋</tspan></text></g></g>
      <g p:name="vectorImage1" id="7d3e2171c5c94a9caefbc6b42087d75d" transform="translate(21,12) scale(1,1)" style="visibility: visible;">
        <g x="0" y="0" p:name="vectorImage1Image" id="58b06581f6d24f2f9589e2d59e2c990a"><g>
	<path fill="rgba(0, 188, 212, 1)" fill-opacity="1" stroke-width="0.2" stroke-linejoin="round" d="M 9.9994,16.9981L 4.9994,11.9981L 6.4134,10.5841L 9.9994,14.1701L 17.5854,6.58407L 18.9994,7.99807M 18.9994,2.99807L 4.9994,2.99807C 3.8934,2.99807 2.9994,3.89307 2.9994,4.99807L 2.9994,18.9981C 2.9994,20.1031 3.8934,20.9981 4.9994,20.9981L 18.9994,20.9981C 20.1044,20.9981 20.9994,20.1031 20.9994,18.9981L 20.9994,4.99807C 20.9994,3.89307 20.1044,2.99807 18.9994,2.99807 Z " style="fill: rgb(0, 188, 212);"/>
</g></g>
      </g>
      <g p:name="trailingIcon" id="95201e0d73d644138b7ccea57d52177a" transform="translate(362,15) scale(0.75,0.75)">
        <g x="0" y="0" p:name="trailingIconImage" id="8b7d7cc0460d4f1591aac8910a72bf46"><g>
	<path fill="rgba(0, 0, 0, 0.54)" fill-opacity="1" stroke-width="0.2" stroke-linejoin="round" d="M 20.7062,7.04108C 21.0972,6.65002 21.0972,6.01703 20.7062,5.62708L 18.3702,3.29108C 17.9802,2.90002 17.3472,2.90002 16.9562,3.29108L 15.1242,5.12305L 18.8742,8.87305M 2.99916,17.248L 2.99916,20.998L 6.74916,20.998L 17.8142,9.93304L 14.0642,6.18304L 2.99916,17.248 Z " style="fill: rgba(0, 0, 0, 0.541176);"/>
</g></g>
      </g>
    </g><g p:type="Shape" p:def="dgthanhan.AndroidNougatWireframe:datatablecell" id="74ff0054457c4d9b8a10801981b54908" transform="matrix(1,0,0,1,0,278)"><p:metadata><p:property name="box">404,48</p:property><p:property name="fillColor">#FFFFFF00</p:property><p:property name="strokeColor">#CCCCCCFF</p:property><p:property name="strokeStyle">1|</p:property><p:property name="vectorImage0ImageData">24,24,ref://2832bc9e85c15a8bb837aecf96852981_svg</p:property><p:property name="textAlignment">0,1</p:property><p:property name="textColor">#000000DE</p:property><p:property name="textFont">sans-serif|normal|normal|11px|none</p:property><p:property name="text0">Regarder ma serie préférée ⏲</p:property><p:property name="text0ImageData">0,0,data:image/svg+xml;utf8,&lt;svg&gt;&lt;/svg&gt;</p:property><p:property name="vectorImage1ImageData">24,24,ref://df9cd3c8416d19bc571a757a36d5c99a_svg</p:property><p:property name="checkMode">checked</p:property><p:property name="trailingIconImageData">24,24,ref://967af882eff2a814d06d619ea3402e10_svg</p:property></p:metadata>
      <defs>
        <clipPath p:name="sbDefaultClipPath" id="16e90ec8df5f4fcab8b418e5cb169ffc">
          <rect p:filter="url(#c1b914aabfbe4797bbf3eb77de3b233f)" rx="0" ry="0" style="fill: rgb(255, 255, 255); fill-opacity: 0; stroke: rgb(96, 96, 96); stroke-opacity: 1; stroke-width: 0;" width="404" height="48" p:name="rectangle0" id="e196e183244f4cdfaf97185a3dd4b54a" x="0" y="0"/>
        </clipPath>
      </defs>
      <g style="clip-path: url(#16e90ec8df5f4fcab8b418e5cb169ffc);">
        <path p:filter="url(#820f92b3aab4428d85392f6601564aee)" d="M 0 0 L 448 0 L 448 65 L 0 65 L 0 0 z" style="fill: rgb(255, 255, 255); fill-opacity: 0; stroke: rgb(204, 204, 204); stroke-opacity: 1; stroke-width: 1;" p:name="pathRect0" id="bac73afd62a8419eb929f871fb53766d" rx="0" ry="0" transform="translate(-20.5,-17.5)"/>
      </g>
      <g p:name="vectorImage0" id="feebe1d1118d4af39d4c3ed13b670513" transform="translate(21,12) scale(1,1)" style="visibility: hidden; display: none;">
        <g x="0" y="0" p:name="vectorImage0Image" id="b9a7e2c3fe2648648bcf04276ca3e3b1"><g>
	<path fill="rgba(96, 96, 96, 1)" fill-opacity="1" stroke-width="0.2" stroke-linejoin="round" d="M 18.9994,2.99807L 4.99939,2.99807C 3.89439,2.99807 2.99939,3.89307 2.99939,4.99807L 2.99939,18.9981C 2.99939,20.1031 3.89439,20.9981 4.99939,20.9981L 18.9994,20.9981C 20.1034,20.9981 20.9994,20.1031 20.9994,18.9981L 20.9994,4.99807C 20.9994,3.89307 20.1034,2.99807 18.9994,2.99807 Z M 18.9994,4.99807L 18.9994,18.9981L 4.99939,18.9991L 4.99939,4.99807L 18.9994,4.99807 Z " style="fill: rgb(96, 96, 96);"/>
</g></g>
      </g>
      <g p:name="text0Icon" id="3592328a079a4383bd22dad684a86764" transform="translate(66,9) scale(296,30)">
        <g x="0" y="0" p:name="text0IconImage" id="a386d7b0300f48c38579ec71ed0088a7"><g/></g>
      </g>
      <g p:filter="url(#7e68ecf2880a457e9c8b371fdad84d67)" dominant-baseline="auto" p:name="text0text" id="c6201bc29cf24c5686c99a82281b3905" style="fill: rgb(0, 0, 0); fill-opacity: 0.870588; color: rgba(0, 0, 0, 0.870588); font-family: sans-serif; font-size: 11px; font-weight: normal; font-style: normal; text-decoration: none;"><g transform="translate(0,9)"><text><tspan x="66" y="19" style="font-family: sans-serif; font-size: 11px; font-weight: normal; font-style: normal; text-decoration: none; text-transform: none; fill: rgba(0, 0, 0, 0.870588); background-color: rgba(0, 0, 0, 0);">Regarder ma serie préférée ⏲</tspan></text></g></g>
      <g p:name="vectorImage1" id="c5631c1102ff4e7c943bca4a71e0b803" transform="translate(21,12) scale(1,1)" style="visibility: visible;">
        <g x="0" y="0" p:name="vectorImage1Image" id="578a1cd7bfcc4241ad3f1899b07575d4"><g>
	<path fill="rgba(0, 188, 212, 1)" fill-opacity="1" stroke-width="0.2" stroke-linejoin="round" d="M 9.9994,16.9981L 4.9994,11.9981L 6.4134,10.5841L 9.9994,14.1701L 17.5854,6.58407L 18.9994,7.99807M 18.9994,2.99807L 4.9994,2.99807C 3.8934,2.99807 2.9994,3.89307 2.9994,4.99807L 2.9994,18.9981C 2.9994,20.1031 3.8934,20.9981 4.9994,20.9981L 18.9994,20.9981C 20.1044,20.9981 20.9994,20.1031 20.9994,18.9981L 20.9994,4.99807C 20.9994,3.89307 20.1044,2.99807 18.9994,2.99807 Z " style="fill: rgb(0, 188, 212);"/>
</g></g>
      </g>
      <g p:name="trailingIcon" id="880dbb0e7d4845019508d1dfc2a68450" transform="translate(362,15) scale(0.75,0.75)">
        <g x="0" y="0" p:name="trailingIconImage" id="a63320b8442e4e578b7000e3ebe7b5df"><g>
	<path fill="rgba(0, 0, 0, 0.54)" fill-opacity="1" stroke-width="0.2" stroke-linejoin="round" d="M 20.7062,7.04108C 21.0972,6.65002 21.0972,6.01703 20.7062,5.62708L 18.3702,3.29108C 17.9802,2.90002 17.3472,2.90002 16.9562,3.29108L 15.1242,5.12305L 18.8742,8.87305M 2.99916,17.248L 2.99916,20.998L 6.74916,20.998L 17.8142,9.93304L 14.0642,6.18304L 2.99916,17.248 Z " style="fill: rgba(0, 0, 0, 0.541176);"/>
</g></g>
      </g>
    </g><g p:type="Shape" p:def="dgthanhan.AndroidNougatWireframe:snackbar" id="e167258f406944f7be8b167ec29767cd" transform="matrix(1,0,0,1,0,590)"><p:metadata><p:property name="box">410,48</p:property><p:property name="fillColor">#333333FF</p:property><p:property name="radius">0,0</p:property><p:property name="shadowStyle">0|0|0|1</p:property><p:property name="textAlignment">0,1</p:property><p:property name="textColor">#FFFFFFFF</p:property><p:property name="textFont">sans-serif|normal|normal|12px|none</p:property><p:property name="text0">Alerte supprimée</p:property><p:property name="textColor2">#FFFF00DE</p:property><p:property name="textFont2">sans-serif|500|normal|12px|none</p:property><p:property name="textAction">Annuler</p:property></p:metadata>
      <defs>
        <filter x="-50%" width="200%" y="-50%" height="200%" p:name="rectangle0_shadowFilter" id="eef0a85d0bbb4e839148210a5cf8c0e6"><feGaussianBlur in="SourceAlpha" stdDeviation="0"/><feOffset dx="0" dy="0"/><feComponentTransfer><feFuncA type="linear" slope="1"/></feComponentTransfer><feMerge><feMergeNode/><feMergeNode in="SourceGraphic"/></feMerge></filter>
      </defs>
      <g p:filter="url(#eef0a85d0bbb4e839148210a5cf8c0e6)" p:name="rectangle0_globalGroup" id="9bfd0a1ed25c461190317bdc8eddb546" filter="url(#eef0a85d0bbb4e839148210a5cf8c0e6)">
        <rect p:filter="url(#043614bf39134a0c9a693839a266d5fd)" rx="0" ry="0" style="fill: rgb(51, 51, 51); fill-opacity: 1; stroke: rgb(0, 0, 0); stroke-opacity: 1; stroke-width: 0;" width="410" height="48" p:name="rectangle0" id="589b1469cae74e45bc9c7b70d26fd41e" x="0" y="0"/>
      </g>
      <g p:filter="url(#e22d30b7a4054f35be5d5d70112a8835)" dominant-baseline="auto" p:name="text0text" id="16793320f81c46d8bf7fc594765889b9" style="fill: rgb(255, 255, 255); fill-opacity: 1; color: rgb(255, 255, 255); font-family: sans-serif; font-size: 12px; font-weight: normal; font-style: normal; text-decoration: none;"><g transform="translate(0,3)"><text><tspan x="24" y="25" style="font-family: sans-serif; font-size: 12px; font-weight: normal; font-style: normal; text-decoration: none; text-transform: none; fill: rgb(255, 255, 255); background-color: rgba(0, 0, 0, 0);">Alerte supprimée</tspan></text></g></g>
      <g p:filter="url(#c4b1e4a3bb7c410480808f4a5bec5fac)" dominant-baseline="auto" p:name="textActiontext" id="ff684aecfe3349cc91f5c37c7682f0c6" style="fill: rgb(255, 255, 0); fill-opacity: 0.870588; color: rgba(255, 255, 0, 0.870588); font-family: sans-serif; font-size: 12px; font-weight: 500; font-style: normal; text-decoration: none;"><g transform="translate(0,3)"><text><tspan x="343" y="25" style="font-family: sans-serif; font-size: 12px; font-weight: 500; font-style: normal; text-decoration: none; text-transform: none; fill: rgba(255, 255, 0, 0.870588); background-color: rgba(0, 0, 0, 0);">Annuler</tspan></text></g></g>
    </g></g></g></svg>